<svg viewBox="0 0 314.09 314.09" xmlns="http://www.w3.org/2000/svg"><path d="m270 217.38a127.47 127.47 0 0 1 -160.49 57.53c.77.05 43.6 2.93 57.78-7.87 0 0-69.5-8.18-68.47-83.46 0 0 8.51 14.64 23.84 14.64s25.89-18.39 25.89-36.45-21.46-41.22-45.65-41.22-64.29 20.53-55.12 100.52a127.39 127.39 0 0 1 32.43-164.95c-.95 1.42-24.38 36.39-22.21 53.88 0 0 42-56 106.57-17.28 0 0-17 0-24.65 13.26s2.9 31.62 18.51 40.69 46.43 2.15 58.58-18.76 14.56-65.91-59.2-98.2h.05a127.36 127.36 0 0 1 125.69 106.87c-.62-1.17-20.39-38.71-36.9-45.1.42.93 28.88 63.79-35.34 102 0 0 8-14.92 0-28s-29.22-12.45-44.61-3-23.9 39.85-11.26 60.47 51.17 44.05 114.56-5.57z" fill="#af8ec1"/><path d="m0 0h314.09v314.09h-314.09z" fill="none"/></svg>