<svg viewBox="0 0 624 600" xmlns="http://www.w3.org/2000/svg" fill="#ffffff08"><g transform="matrix(1.7813859 0 0 1.7813859 -243.88939 -280.76446)"><path d="m258.38141 238.20401c11.2908-26.91489 30.00641-50.67424 53.61856-67.84089 21.47433 15.65609 38.98662 36.72075 50.38625 60.72973-6.54793-2.40665-13.15344-4.7429-19.98937-6.21507-1.35694-.40324-3.11074-.33282-3.78922-1.81781-7.34158-11.51481-16.29614-22.01835-26.60766-30.97933-29.27674 25.38516-47.46108 63.07881-49.06767 101.79658-.16635 3.07233.0319 6.16386-.32645 9.2298-5.66459 1.66415-11.1564 3.82759-16.6546 5.95903-1.18411-24.1562 3.05314-48.56201 12.43016-70.86204z"/><path d="m289.89838 231.86732c26.14682-4.8197 53.82341-.90248 77.64037 10.91319 20.89186 10.22192 38.80738 26.39645 51.14152 46.11697 11.70685 18.626 18.47877 40.40756 19.05485 62.41952-5.39579-5.77343-11.0604-11.30362-17.19226-16.29618-.90889-.79366-2.07381-1.53614-2.17624-2.8547-4.83892-22.16557-16.88501-42.69899-33.89805-57.71498-19.64371-17.72993-46.01453-27.72141-72.4686-27.6382-10.64434-.0768-21.25671 1.61299-31.47219 4.53809 2.55387-6.74634 5.76704-13.2366 9.3706-19.48371z"/><path d="m208.62886 283.86655c9.74183-13.8767 22.18476-25.94839 36.65033-34.83256-2.26585 7.77683-4.38447 15.61766-5.61341 23.63133 0 2.07383-1.86259 3.21317-3.16192 4.5381-18.90125 18.02434-30.89613 43.07025-33.01475 69.11465-2.57309 27.83018 6.24705 56.50527 23.95135 78.12681 3.04035 3.866 6.59271 7.28397 9.95949 10.86196-7.11117.9537-14.27354 1.66419-21.45511 1.50418-1.74741-1.31216-2.84192-3.29638-4.22448-4.94774-16.94901-22.13359-26.06998-50.0662-25.55794-77.92839.23032-24.9115 8.20569-49.64376 22.46644-70.06834z"/><path d="m357.06084 266.00861c7.02795 3.47558 13.76787 7.73843 19.58609 13.0126 2.7331 18.10115 1.85622 36.70156-1.8178 54.62349-6.11907 30.19205-21.3463 58.39347-42.93581 80.33503-4.77491-3.05311-9.26822-6.52869-13.56307-10.22188 5.31898-5.77982 10.74036-11.50204 15.27845-17.94115 16.48819-22.5432 26.21083-49.99577 27.41415-77.90278.73609-14.07511-.61445-28.22063-3.96201-41.90531z"/><path d="m233.02828 324.89495c34.11565-19.32367 75.40011-25.40433 113.65703-16.87862 1.98422.44806 4.01321.7937 5.90785 1.58738-.56329 5.59422-1.08813 11.20121-2.24024 16.7122-21.56394-5.80544-44.43362-6.74634-66.34956-2.38105-24.98829 4.97973-48.67724 16.56498-67.71288 33.5332-1.51058 1.38896-3.03393 2.7523-4.5637 4.11565-.23671-7.78964-.21752-15.67528 1.42737-23.32412 6.05503-5.19736 12.96137-9.38341 19.87413-13.36464z"/><path d="m385.39668 321.94424c22.54962 11.39962 42.25095 28.32946 57.11976 48.74126 16.59697 22.67123 27.0237 49.77812 29.9936 77.71075-24.23938 10.84917-51.2823 15.48326-77.74915 13.33904 6.20225-5.08215 12.0909-10.53555 17.51228-16.43697 14.06872-.78089 28.23985-2.94434 41.50207-7.84725-4.24365-20.74463-12.90378-40.59315-25.53874-57.60618-12.18053-16.4306-27.8302-30.33928-45.75212-40.22835.72327-5.92064 2.27223-11.72607 2.9123-17.6723z"/><path d="m251.59667 343.8346c5.13335-2.45147 10.31151-4.89013 15.77772-6.50951 6.43906 24.59146 19.45167 47.46112 37.49523 65.38304 17.14103 17.37787 38.83297 30.14083 62.24667 37.00877-6.5863 4.3589-13.71665 7.93046-21.16704 10.55476-22.98487-9.59464-43.85753-24.34824-60.20491-43.16626-15.9505-18.16515-27.74058-39.9659-34.14767-63.2708z"/><path d="m173.57227 382.58436c1.67059-2.77152 3.36037-5.543 5.32539-8.12248 1.12652 7.02795 2.53466 14.02394 4.71729 20.80864.32643 1.22254 1.13294 2.61149.18577 3.77644-6.38787 12.05248-10.79154 25.09069-13.57587 38.4297 25.67957 9.06979 54.02823 10.12591 80.47589 3.82122 14.1711-3.37955 27.75977-9.04418 40.27953-16.46898 4.39726 3.98123 9.00577 7.71925 13.56947 11.50845-22.93368 14.86239-49.66935 23.81056-76.9555 25.53235-25.92279 1.8882-52.16561-3.00191-75.99539-13.26864 2.14424-23.2857 9.99149-45.96335 21.97359-66.0167z"/><path d="m381.22983 439.85774c18.30597-15.03523 31.4658-36.1447 36.89996-59.19998 4.12207 5.05656 7.78325 10.49074 11.15642 16.07853.49925.8833 1.29933 1.901.71046 2.9635-7.04713 18.86286-18.64519 36.0423-33.65481 49.49655-17.74272 16.05933-40.15795 26.90209-63.77645 30.79371-26.99172 4.48688-55.4876-.0384-79.58619-13.05742 8.4937-1.99698 16.85301-4.52528 25.05229-7.50799 10.59954 3.15553 21.58314 5.32537 32.68832 5.19096 25.47475.59526 50.89189-8.59613 70.51-24.75786z"/></g></svg>