<svg viewBox="0 0 314.09 314.09" xmlns="http://www.w3.org/2000/svg"><g fill="#74c2a8"><path d="m145.24 148.75s-68.35-44.61-32.35-124.18c0 0-40.5 19-40.5 53.48 0 48.13 41.67 62.42 72.85 70.7z"/><path d="m136.37 189.38c0 15.85-23.48 16.24-23.48 16.24 1.37 18 29 15.06 28.81-12.13s-17.27-28.57-57-30.13-56.94-46.18-56.94-46.18-15.44 46.76 17.14 65.55 66.23-7.44 71.9-8 19.57-1.2 19.57 14.65z"/><path d="m241.7 78.05c0-34.43-40.5-53.48-40.5-53.48 36 79.57-32.35 124.18-32.35 124.18 31.15-8.28 72.85-22.57 72.85-70.7z"/><path d="m286.31 117.18s-17.22 44.61-56.94 46.18-56.84 2.93-57 30.13 27.44 30.13 28.81 12.13c0 0-23.48-.39-23.48-16.24s13.89-15.26 19.56-14.68 39.34 26.81 71.91 8 17.14-65.52 17.14-65.52z"/><path d="m181.22 224.52c-8.84 0-19.58-10.31-19.58-27.21l.08-4.18a26.82 26.82 0 0 1 9-19.58c9.94-8.79 26.63-17.57 46.75-19 38.74-2.74 69.06-31.69 40.5-92.35 0 0 1.37 49.5-34.05 71.42s-56.2 25.63-66.84 48.5c-10.63-22.87-31.43-26.59-66.84-48.5s-34-71.42-34-71.42c-28.56 60.66 1.76 89.61 40.5 92.35 20.12 1.43 36.8 10.21 46.74 19a26.75 26.75 0 0 1 9 19.58l.08 4.18c0 16.9-10.74 27.21-19.58 27.21a29.25 29.25 0 0 1 -10-1.64 12.91 12.91 0 0 0 -10.47.8l-2.22 1.18c34.18 26.14 46.71 64.65 46.71 64.65s12.57-38.48 46.88-64.65l-2.22-1.18a12.9 12.9 0 0 0 -10.47-.8 29.21 29.21 0 0 1 -9.97 1.64zm-24.22 43.83c0-5.34-12.33-21.91-12.33-21.91a20.78 20.78 0 0 0 12.33-8.74 20.78 20.78 0 0 0 12.33 8.74s-12.33 16.56-12.33 21.91zm5.83-34.35a34.91 34.91 0 0 1 -5.79-5.2 34.6 34.6 0 0 1 -5.78 5.2 13 13 0 0 1 -7.41 2.24h-6.7s19.21-9.2 19.86-19.55h.06c.65 10.35 19.86 19.55 19.86 19.55h-6.69a13 13 0 0 1 -7.41-2.24z"/></g><path d="m0 0h314.09v314.09h-314.09z" fill="none"/></svg>