<svg viewBox="0 0 314.09 314.09" xmlns="http://www.w3.org/2000/svg"><g fill="#9fd6e3"><path d="m157.22 11.84s-24.09 53.85-39 69.77c.31-.11 5.29-2 11.64-5.16 5.67 8 27.32 39.91 27.32 62.7 0-22.79 21.65-54.73 27.32-62.7 6.35 3.11 11.33 5 11.64 5.16-14.83-15.92-38.92-69.77-38.92-69.77zm0 105.58a106.72 106.72 0 0 0 -13.51-48.71c5.93-3.88 11.19-8.34 13.51-12.91 2.32 4.57 7.58 9 13.51 12.91a106.72 106.72 0 0 0 -13.51 48.71z"/><path d="m282.88 84.59s-58.68 6.07-79.88 1.15c.25.21 4.42 3.56 10.28 7.5-4.06 8.89-20.9 43.61-40.63 55 19.73-11.4 58.22-8.62 68-7.69.49 7.05 1.3 12.34 1.36 12.66 6.28-20.83 40.87-68.62 40.87-68.62zm-91.44 52.79a106.58 106.58 0 0 0 35.43-36c6.33 3.19 12.82 5.52 17.94 5.24-2.8 4.3-4 11.08-4.43 18.16-26.75.01-47.65 11.86-48.94 12.6z"/><path d="m282.7 229.8s-34.59-47.8-40.94-68.63c-.06.32-.87 5.61-1.35 12.66-9.74.93-48.22 3.71-68-7.69 19.74 11.4 36.57 46.11 40.64 55-5.87 3.94-10 7.29-10.29 7.5 21.24-4.91 79.94 1.16 79.94 1.16zm-91.43-52.8a106.79 106.79 0 0 0 48.94 12.65c.39 7.08 1.63 13.86 4.42 18.16-5.11-.28-11.61 2-17.93 5.24a106.77 106.77 0 0 0 -35.43-36.05z"/><path d="m156.87 302.24s24.09-53.85 39-69.77c-.31.11-5.29 2.05-11.64 5.16-5.67-8-27.32-39.91-27.32-62.7 0 22.79-21.65 54.73-27.32 62.7-6.35-3.11-11.33-5-11.64-5.16 14.83 15.92 38.92 69.77 38.92 69.77zm0-105.58a106.72 106.72 0 0 0 13.51 48.71c-5.93 3.88-11.19 8.34-13.51 12.91-2.32-4.57-7.58-9-13.51-12.91a106.72 106.72 0 0 0 13.51-48.71z"/><path d="m31.21 229.49s58.68-6.06 79.9-1.14c-.25-.22-4.42-3.56-10.29-7.5 4.07-8.9 20.91-43.62 40.64-55-19.73 11.39-58.22 8.61-68 7.69-.48-7.06-1.29-12.34-1.35-12.66-6.31 20.83-40.9 68.61-40.9 68.61zm91.43-52.79a106.74 106.74 0 0 0 -35.43 36.06c-6.32-3.2-12.81-5.52-17.93-5.25 2.8-4.29 4-11.08 4.42-18.15a106.73 106.73 0 0 0 48.94-12.66z"/><path d="m31.38 84.29s34.59 47.79 41 68.63c.06-.33.87-5.61 1.35-12.66 9.73-.93 48.22-3.71 68 7.69-19.74-11.4-36.58-46.12-40.64-55 5.87-4 10-7.29 10.29-7.5-21.32 4.9-80-1.16-80-1.16zm91.44 52.79a106.65 106.65 0 0 0 -48.94-12.65c-.4-7.08-1.63-13.86-4.43-18.16 5.12.28 11.61-2 17.94-5.24a106.77 106.77 0 0 0 35.43 36.05z"/><circle cx="157.22" cy="158.05" r="5.65"/><path d="m153.85 138 2 17.62-14.29-10.5a15.63 15.63 0 0 1 -6.37-12l-.45-12.36a1 1 0 0 1 1.44-.83l10.48 6.56a15.64 15.64 0 0 1 7.19 11.51z"/><path d="m172.93 145.09-14.29 10.5 1.94-17.59a15.68 15.68 0 0 1 7.25-11.55l10.48-6.56a.94.94 0 0 1 1.43.83l-.44 12.36a15.63 15.63 0 0 1 -6.37 12.01z"/><path d="m176.29 165.18-16.23-7.13 16.23-7.13a15.62 15.62 0 0 1 13.62.51l10.92 5.79a.94.94 0 0 1 0 1.66l-10.92 5.79a15.65 15.65 0 0 1 -13.62.51z"/><path d="m160.58 178.13-1.94-17.62 14.29 10.49a15.65 15.65 0 0 1 6.37 12.05l.44 12.35a.93.93 0 0 1 -1.43.83l-10.48-6.56a15.68 15.68 0 0 1 -7.25-11.54z"/><path d="m141.51 171 14.29-10.49-2 17.62a15.63 15.63 0 0 1 -7.24 11.54l-10.48 6.56a.94.94 0 0 1 -1.44-.83l.45-12.35a15.65 15.65 0 0 1 6.42-12.05z"/><path d="m138.15 150.92 16.23 7.13-16.23 7.13a15.65 15.65 0 0 1 -13.62-.51l-10.92-5.79a.94.94 0 0 1 0-1.66l10.92-5.79a15.62 15.62 0 0 1 13.62-.51z"/></g><path d="m0 0h314.09v314.09h-314.09z" fill="none"/></svg>