<svg viewBox="0 0 314.09 314.09" xmlns="http://www.w3.org/2000/svg"><g fill="#a5c83b"><path d="m172.23 78.43-15.18 17.67-15.19-17.67a24 24 0 0 1 -2.09-28.43l17.28-27.35 17.27 27.35a24 24 0 0 1 -2.09 28.43z"/><path d="m268.12 172.71-.78.57.59.51c-6.93 39.22-38.21 56.42-56 64.94-20.11 9.62-54.86 29.44-54.86 52.75 0-23.31-34.76-43.13-54.87-52.75-17.8-8.52-49.08-25.72-56-64.93l.6-.52-.8-.58a93.47 93.47 0 0 1 -1.21-15.29c0-51 40.52-73.45 65.87-73.45 19.14 0 33 11.45 38.59 17.07a5.05 5.05 0 0 1 .65 6.34l-4.07 6.25a2.42 2.42 0 0 1 -3.93.18c-5.31-6.66-21.2-22.14-48.9-11.8-20.71 7.75-33.67 27-33.67 50s14.21 56.43 51.41 70.22 46.31 36.08 46.31 36.08 9.11-22.29 46.31-36.08 51.41-47.22 51.41-70.22-13-42.21-33.65-49.94c-27.72-10.36-43.62 5.12-48.9 11.78a2.42 2.42 0 0 1 -3.93-.18l-4.07-6.25a5.07 5.07 0 0 1 .65-6.34c5.64-5.66 19.46-17.07 38.59-17.07 25.36 0 65.87 22.44 65.87 73.45a93.51 93.51 0 0 1 -1.21 15.26z"/><path d="m46.76 173.28-.6.52c-.07-.36-.14-.73-.19-1.1z"/><path d="m140.75 206.42c-31.67-27.84-39-46.35-31.82-63s27.13-9.94 27.13-9.94c-17.07-17.7-31.49-14.39-39.49-9.91a26.73 26.73 0 0 0 -11 12c-6.5 13.75-.57 27.06 9.45 38.36-6.32.52-14.13 3.24-18.63 12.44 0 0 4.65-4.77 11-5.6s12.7-1.17 17.62 2.8c16.31 13.8 35.74 22.85 35.74 22.85z"/><path d="m60.87 92.75a16.77 16.77 0 0 0 -15.94-14.59l-20.36-.83 4.77 16.8a18.22 18.22 0 0 0 20 13.08l13.14-1.81z"/><path d="m46.76 173.28-.6.52-7.89 6.83a12 12 0 0 1 -14.52.94l-10-6.6 10.47-7.71a12 12 0 0 1 14.23 0l7.55 5.44z"/><path d="m268.12 172.71c-.05.36-.12.72-.19 1.08l-.59-.51z"/><path d="m173.35 206.42c31.66-27.84 39-46.35 31.81-63s-27.16-9.97-27.16-9.97c17.07-17.7 31.49-14.39 39.5-9.91a26.73 26.73 0 0 1 11 12c6.49 13.75.57 27.06-9.45 38.36 6.32.52 14.12 3.24 18.63 12.44 0 0-4.65-4.77-11-5.6s-12.7-1.17-17.62 2.8c-16.28 13.83-35.71 22.88-35.71 22.88z"/><path d="m253.22 92.75a16.79 16.79 0 0 1 15.94-14.59l20.37-.83-4.77 16.8a18.24 18.24 0 0 1 -20 13.08l-13.14-1.81z"/><path d="m300.3 175-10 6.6a12 12 0 0 1 -14.51-.94l-7.9-6.84-.59-.51.78-.57 7.48-5.48a12 12 0 0 1 14.24 0z"/></g><path d="m0 0h314.09v314.09h-314.09z" fill="none"/></svg>