<svg viewBox="0 0 314.09 314.09" xmlns="http://www.w3.org/2000/svg"><path d="m249.57 189.64 2.06-1.63a75.5 75.5 0 0 0 23.28-31.09s-59.06-88.43-117.91-127.19c0 0-65.9 52.18-81.56 80 0 0 10.81 39 19.76 49.77 0 0 47.63-45.54 61.8-50.2 0 0 18.34 13.3 26.55 36.41l-28.71 27.21 8.58 11.56 43.24-36.91s-21.75-42.57-49.66-66.03l-55 46.6s12.46-43.99 55-86.14c0 0 75.05 85.39 92.57 147.64z" fill="#fab632"/><path d="m64.52 124.44-2.07 1.63a75.64 75.64 0 0 0 -23.28 31.1s59.07 88.42 117.88 127.19c0 0 65.9-52.19 81.56-80 0 0-10.82-39-19.76-49.76 0 0-47.65 45.1-61.81 49.76 0 0-18.34-12.86-26.54-36l28.7-27.21-8.57-11.56-43.24 36.91s21.79 42.49 49.66 66l55.09-46.5s-12.51 44-55.09 86.11c0-.05-75.05-85.41-92.53-147.67z" fill="#fab632"/><path d="m0 0h314.09v314.09h-314.09z" fill="none"/></svg>