<svg viewBox="0 0 314.09 314.09" xmlns="http://www.w3.org/2000/svg"><g fill="#4cc2f1"><path d="m156.62 280c-15.53.38-28.14-2.22-38.2-6.05a122.71 122.71 0 0 0 38.2 6.05z"/><path d="m127.39 225a17.1 17.1 0 0 0 1.75 7.33 37.87 37.87 0 0 0 18.63 18.08 37.51 37.51 0 0 0 15.33 3.25c19.53 0 28.31-12.44 29.43-17.49-1.39 7.53-12.66 24-35.92 24a44.18 44.18 0 1 1 42.52-56.17c.09.26.16.53.23.81s.11.43.16.65a16.82 16.82 0 0 1 .3 2 0 0 0 0 1 0 0v.11a17 17 0 0 1 -12.09 17.79 17.27 17.27 0 0 1 -8.2.39 17.06 17.06 0 0 1 -13.39-13.22 15.05 15.05 0 0 1 -.25-1.52 15 15 0 0 0 -14.71-11.89 15.62 15.62 0 0 0 -2.29.17q-.75.12-1.47.3a26.08 26.08 0 0 0 -20.03 25.41z"/><path d="m49.14 97.24c-.44.78-.87 1.57-1.28 2.37a15.9 15.9 0 0 1 1.28-2.37z"/><path d="m67.13 159a16.28 16.28 0 0 1 -8.8 14.47 16.31 16.31 0 1 1 8.8-14.47z"/><path d="m85.11 212.7a11.94 11.94 0 0 1 -7.11 10.94 11.76 11.76 0 0 1 -4.48 1h-.3a11.93 11.93 0 0 1 -2-23.7 11.4 11.4 0 0 1 2-.16 11.93 11.93 0 0 1 11.89 11.92z"/><path d="m279.58 155.7c.71 68-55 124.29-123 124.29a122.71 122.71 0 0 1 -38.2-6.05c-23.47-8.95-33-24.67-33.3-25.16a108.58 108.58 0 0 0 32.14 16c1.16.36 2.31.7 3.44 1a123.38 123.38 0 0 0 35.88 4.69c1.34 0 2.66 0 4-.08 23.68-.94 45.25-14.7 55.1-36.25a68.25 68.25 0 0 0 6.12-32.14c-1.91-36.23-32.38-64.85-68.66-64.65a68 68 0 0 0 -17.63 2.4l-.28.08a17.07 17.07 0 0 1 -4.14.51 16.81 16.81 0 0 1 -7-32.12h.13l.18-.08h.07l.33-.13.82-.31a86.07 86.07 0 0 1 88 144.61 98.16 98.16 0 0 0 41.25-80.83c-.41-53.38-44.07-97.08-97.45-97.54a98.16 98.16 0 0 0 -80.67 40.96c-.34.46-.66.92-1 1.38a16.37 16.37 0 0 1 -27.85-16.67c.41-.8.84-1.59 1.28-2.37a123 123 0 0 1 230.44 58.46z"/><path d="m156.62 280c-15.53.38-28.14-2.22-38.2-6.05a122.71 122.71 0 0 0 38.2 6.05z"/></g><path d="m0 0h314.09v314.09h-314.09z" fill="none"/></svg>